<svg width="25" height="81" viewBox="0 0 25 81" fill="none" xmlns="http://www.w3.org/2000/svg">
<path fill-rule="evenodd" clip-rule="evenodd" d="M23.2587 0.327541C23.9976 0.697644 24.5593 1.34484 24.8204 2.12722C25.0816 2.9096 25.0209 3.76331 24.6518 4.50118L6.6158 40.4879L24.6581 76.4684C24.8456 76.8345 24.9586 77.2339 24.9906 77.6437C25.0226 78.0535 24.9729 78.4656 24.8444 78.8562C24.7159 79.2468 24.5111 79.6081 24.2419 79.9194C23.9727 80.2307 23.6443 80.4858 23.2758 80.6699C22.9072 80.8541 22.5058 80.9637 22.0945 80.9924C21.6833 81.0211 21.2704 80.9684 20.8797 80.8372C20.489 80.7061 20.1282 80.4991 19.8181 80.2283C19.508 79.9574 19.2548 79.628 19.073 79.2591L0.331003 41.8833C0.113338 41.4501 0 40.9724 0 40.4879C0 40.0034 0.113338 39.5257 0.331003 39.0925L19.073 1.71668C19.4441 0.979824 20.0932 0.4198 20.8778 0.159396C21.6625 -0.101008 22.5187 -0.0405408 23.2587 0.327541Z" fill="white"/>
</svg>
