<svg width="26" height="81" viewBox="0 0 26 81" fill="none" xmlns="http://www.w3.org/2000/svg">
<path fill-rule="evenodd" clip-rule="evenodd" d="M2.72535 0.330021C3.4663 -0.0400164 4.32439 -0.101551 5.11086 0.158952C5.89734 0.419455 6.54777 0.980659 6.9191 1.71911L25.6691 39.0938C25.8869 39.5269 26.0002 40.0047 26.0002 40.4892C26.0002 40.9736 25.8869 41.4514 25.6691 41.8845L6.9191 79.2592C6.73719 79.6281 6.48382 79.9575 6.17359 80.2283C5.86336 80.4991 5.5024 80.7061 5.11154 80.8372C4.72067 80.9684 4.30763 81.0211 3.89622 80.9924C3.48481 80.9637 3.08317 80.8541 2.71446 80.6699C2.34575 80.4858 2.01725 80.2307 1.74792 79.9194C1.47859 79.6082 1.27374 79.2468 1.14519 78.8563C1.01664 78.4657 0.966926 78.0536 0.998919 77.6438C1.03091 77.234 1.14398 76.8346 1.3316 76.4685L19.3753 40.4892L1.3316 4.50976C0.960319 3.77128 0.898577 2.91606 1.15995 2.13221C1.42133 1.34837 1.98442 0.700102 2.72535 0.330021Z" fill="white"/>
</svg>
